<?xml version="1.0" encoding="UTF-8" standalone="no"?>
<svg width="2000px" height="400px" viewBox="0 0 2000 400" version="1.1" xmlns="http://www.w3.org/2000/svg" xmlns:xlink="http://www.w3.org/1999/xlink">
    <!-- Generator: Sketch 39 (31667) - http://www.bohemiancoding.com/sketch -->
    <title>rodape</title>
    <desc>Created with Sketch.</desc>
    <defs>
        <polygon id="path-1" points="29.3675357 40.1538095 58.3000464 40.1538095 58.3000464 1.32702315e-14 0.435024985 0 0.435024985 40.1538095 29.3675357 40.1538095"></polygon>
        <polygon id="path-3" points="41.317939 14.4740476 41.317939 3.6096586e-13 0.318613268 3.41060513e-13 0.318613268 14.4740476 41.317939 14.4740476"></polygon>
    </defs>
    <g id="Home" stroke="none" stroke-width="1" fill="none" fill-rule="evenodd">
        <g transform="translate(0.000000, -6508.000000)" id="rodape">
            <g transform="translate(-193.000000, 6489.000000)">
                <g id="onda" transform="translate(0.000000, 138.000000)">
                    <path d="M125.94297,48.6698766 C152.358336,64.8659985 159.645334,68.915029 172.39758,68.915029 C185.149826,68.915029 198.812946,64.8659985 229.782686,45.2956846 C260.752426,25.7253707 289.900417,18.9769865 310.850535,18.9769865 C331.800653,18.9769865 357.305145,27.7498859 383.720511,43.9460078 C410.135878,60.1421296 435.64037,69.5898674 452.036114,66.8905138 C468.431859,64.1911601 502.134223,43.9460078 514.886469,36.5227852 C527.638715,29.0995627 560.430204,16.2776329 585.934696,18.9769865 C611.439188,21.6763402 631.478431,31.1240779 660.626422,47.9950382 C689.774412,64.8659985 711.635405,72.9640595 730.763774,66.2156753 C749.892143,59.4672912 799.990252,14.8685703 865.57323,17.2601976 C931.156209,19.651825 960.3042,41.9214925 982.165193,52.7189071 C1004.02619,63.5163217 1021.3328,77.6879283 1048.65905,66.2156753 C1075.98529,54.7434223 1111.5094,18.9769865 1159.78576,20.3266634 C1208.06212,21.6763402 1230.83399,43.9460078 1245.40798,50.0195535 C1259.98198,56.0930992 1288.21909,77.6879283 1325.56496,62.1666449 C1362.91082,46.6453614 1367.46519,29.7744011 1406.63281,23.026017 C1445.80042,16.2776329 1470.39403,25.0505322 1494.98765,37.8724621 C1519.58127,50.6943919 1547.81838,74.7321361 1576.96637,69.1242289 C1606.11437,63.5163217 1639.81673,27.7498859 1678.07347,23.026017 C1716.3302,18.3021481 1746.38907,25.4743308 1776.44794,43.8204878 C1806.5068,62.1666449 1838.49308,79.0376052 1872.59805,60.1421296 L1953.77167,121.706288 L285.410891,130.526637 L0.242260541,141.122739 C0.242260541,141.122739 60.1723509,21.6763402 52.523736,21.0015018 C41.98947,20.0722493 99.5276034,32.4737548 125.94297,48.6698766 Z" id="Fill-1" fill="#217A82"></path>
                    <path d="M1780.70071,48.5024212 C1807.11608,64.6985431 1814.40307,68.7475735 1827.15532,68.7475735 C1839.90757,68.7475735 1853.57069,64.6985431 1884.54043,45.1282291 C1915.51017,25.5579152 1944.65816,18.8095311 1965.60827,18.8095311 C1986.55839,18.8095311 2012.06288,27.5824304 2038.47825,43.7785523 C2064.89362,59.9746742 2090.39811,69.4224119 2106.79385,66.7230583 C2123.1896,64.0237047 2156.89196,43.7785523 2169.64421,36.3553298 C2182.39645,28.9321073 2215.18794,16.1101774 2240.69244,18.8095311 C2266.19693,21.5088847 2286.23617,30.9566225 2315.38416,47.8275828 C2344.53215,64.6985431 2366.39314,72.796604 2385.52151,66.0482199 C2404.64988,59.2998358 2454.74799,14.7011148 2520.33097,17.0927422 C2585.91395,19.4843695 2615.06194,41.7540371 2636.92293,52.5514517 C2658.78392,63.3488662 2676.09054,77.5204729 2703.41679,66.0482199 C2730.74303,54.5759669 2766.26714,18.8095311 2814.5435,20.1592079 C2862.81986,21.5088847 2885.59173,43.7785523 2900.16572,49.852098 C2914.73972,55.9256437 2942.97683,77.5204729 2980.3227,61.9991894 C3017.66856,46.477906 3022.22293,29.6069457 3061.39054,22.8585616 C3100.55816,16.1101774 3125.15177,24.8830768 3149.74539,37.7050066 C3174.33901,50.5269364 3202.57612,74.5646806 3231.72411,68.9567734 C3260.8721,63.3488662 3294.57447,27.5824304 3332.83121,22.8585616 C3371.08794,18.1346927 3401.14681,25.3068753 3431.20567,43.6530324 C3461.26454,61.9991894 3493.25082,78.8701497 3527.35579,59.9746742 L3608.52941,121.538833 L1940.16863,130.359182 L1655,140.955284 C1655,140.955284 1714.93009,21.5088847 1707.28148,20.8340463 C1696.74721,19.9047938 1754.28534,32.3062993 1780.70071,48.5024212 Z" id="Fill-1-Copy" fill="#217A82"></path>
                    <path d="M244.381366,31.9063506 C270.796733,48.1024725 278.08373,52.151503 290.835976,52.151503 C303.588222,52.151503 317.251343,48.1024725 348.221083,28.5321586 C379.190823,8.96184464 408.338813,2.21346053 429.288931,2.21346053 C450.23905,2.21346053 475.743541,10.9863599 502.158908,27.1824818 C528.574274,43.3786036 554.078766,52.8263414 570.474511,50.1269877 C586.870255,47.4276341 620.572619,27.1824818 633.324865,19.7592592 C646.077111,12.3360367 678.8686,-0.485893118 704.373092,2.21346053 C729.877584,4.91281417 749.916827,14.3605519 779.064818,31.2315122 C808.212809,48.1024725 830.073802,56.2005334 849.20217,49.4521493 C868.330539,42.7037652 918.428648,-1.89495572 984.011627,0.496671609 C1049.59461,2.88829894 1078.7426,25.1579665 1100.60359,35.9553811 C1122.46458,46.7527957 1139.7712,60.9244023 1167.09744,49.4521493 C1194.42368,37.9798963 1229.9478,2.21346053 1278.22416,3.56313735 C1326.50052,4.91281417 1349.27238,27.1824818 1363.84638,33.2560275 C1378.42037,39.3295732 1406.65749,60.9244023 1444.00335,45.4031189 C1481.34922,29.8818354 1485.90359,13.0108751 1525.0712,6.262491 C1564.23881,-0.485893118 1588.83243,8.28700623 1613.42605,21.108936 C1638.01966,33.9308659 1666.25678,57.9686101 1695.40477,52.3607029 C1724.55276,46.7527957 1758.25513,10.9863599 1796.51186,6.262491 C1834.7686,1.53862212 1864.82747,8.71080475 1894.88633,27.0569618 C1924.9452,45.4031189 1956.93056,62.2740791 1991.03644,43.3786036 L1969.13262,135.862078 L398.319191,147.978557 L118.680657,124.359213 C118.680657,124.359213 178.610747,4.91281417 170.962132,4.23797576 C160.427866,3.30872327 217.966,15.7102288 244.381366,31.9063506 Z" id="Fill-4" fill="#48C3CE"></path>
                    <path d="M1899.70071,31.5024212 C1926.11608,47.6985431 1933.40307,51.7475735 1946.15532,51.7475735 C1958.90757,51.7475735 1972.57069,47.6985431 2003.54043,28.1282291 C2034.51017,8.5579152 2063.65816,1.80953109 2084.60827,1.80953109 C2105.55839,1.80953109 2131.06288,10.5824304 2157.47825,26.7785523 C2183.89362,42.9746742 2209.39811,52.4224119 2225.79385,49.7230583 C2242.1896,47.0237047 2275.89196,26.7785523 2288.64421,19.3553298 C2301.39645,11.9321073 2334.18794,-0.889822558 2359.69244,1.80953109 C2385.19693,4.50888473 2405.23617,13.9566225 2434.38416,30.8275828 C2463.53215,47.6985431 2485.39314,55.796604 2504.52151,49.0482199 C2523.64988,42.2998358 2573.74799,-2.29888516 2639.33097,0.0927421686 C2704.91395,2.4843695 2734.06194,24.7540371 2755.92293,35.5514517 C2777.78392,46.3488662 2795.09054,60.5204729 2822.41679,49.0482199 C2849.74303,37.5759669 2885.26714,1.80953109 2933.5435,3.15920791 C2981.81986,4.50888473 3004.59173,26.7785523 3019.16572,32.852098 C3033.73972,38.9256437 3061.97683,60.5204729 3099.3227,44.9991894 C3136.66856,29.477906 3141.22293,12.6069457 3180.39054,5.85856156 C3219.55816,-0.889822558 3244.15177,7.88307679 3268.74539,20.7050066 C3293.33901,33.5269364 3321.57612,57.5646806 3350.72411,51.9567734 C3379.8721,46.3488662 3413.57447,10.5824304 3451.83121,5.85856156 C3490.08794,1.13469268 3520.14681,8.30687531 3550.20567,26.6530324 C3580.26454,44.9991894 3612.24991,61.8701497 3646.35579,42.9746742 L3624.45197,135.458149 L2053.63853,147.574628 L1774,123.955284 C1774,123.955284 1833.93009,4.50888473 1826.28148,3.83404632 C1815.74721,2.90479383 1873.28534,15.3062993 1899.70071,31.5024212 Z" id="Fill-4-Copy" fill="#48C3CE"></path>
                    <rect id="Rectangle-166" fill="#47C3CF" x="178" y="85" width="2071" height="199"></rect>
                </g>
                <g id="ilustra" transform="translate(1336.682737, 83.894604) rotate(12.000000) translate(-1336.682737, -83.894604) translate(1269.182737, 13.394604)">
                    <polygon id="Fill-42" fill="#216C70" points="87.5464315 139.165374 53.2675759 122.045377 23.3918035 139.165374"></polygon>
                    <g id="Group-46" transform="translate(52.832551, 99.011565)">
                        <mask id="mask-2" fill="white">
                            <use xlink:href="#path-1"></use>
                        </mask>
                        <g id="Clip-45"></g>
                        <polygon id="Fill-44" fill="#227A82" mask="url(#mask-2)" points="58.3001408 0 34.7138805 40.1538095 0.435024985 23.0338126"></polygon>
                    </g>
                    <polygon id="Fill-47" fill="#227A82" points="23.3918035 139.165374 53.2675759 122.045377 0.120183931 99.0115649"></polygon>
                    <path d="M74.771594,113.485612 L53.2675288,87.1834665 C53.2675288,87.1834665 53.5821695,111.265947 55.4690703,121.169464 L74.771594,113.485612 Z" id="Fill-49" fill="#1B5B5E"></path>
                    <path d="M33.5169133,113.485612 L53.2675759,87.1834665 C53.2675759,87.1834665 52.3241255,107.415851 53.2675759,122.045377 L33.5169133,113.485612 Z" id="Fill-51" fill="#1B5B5E"></path>
                    <g id="Group-55" transform="translate(69.814658, 99.011565)">
                        <mask id="mask-4" fill="white">
                            <use xlink:href="#path-3"></use>
                        </mask>
                        <g id="Clip-54"></g>
                        <path d="M41.3180334,3.41060513e-13 C41.3180334,3.41060513e-13 0.487386482,9.00705976 0.322754386,8.80582381 C0.158122289,8.60412095 4.9569828,14.4740476 4.9569828,14.4740476" id="Fill-53" fill="#216C70" mask="url(#mask-4)"></path>
                    </g>
                    <polygon id="Fill-56" fill="#216C70" points="0.120042414 99.0115649 38.2689315 107.157652 33.5167718 113.485612"></polygon>
                    <g id="balao" transform="translate(49.928158, 0.734238)">
                        <path d="M2.13162821e-13,42.1880149 C2.13162821e-13,53.2134793 4.25577976,63.2449204 11.2161091,70.7611582 L6.28526862,87.7784087 L22.7866075,79.583694 C28.6573453,82.6399675 35.3316763,84.3775758 42.4179071,84.3775758 C65.8449022,84.3775758 84.8373685,65.4880428 84.8373685,42.1880149 C84.8373685,18.887987 65.8449022,0 42.4179071,0 C18.990912,0 2.13162821e-13,18.887987 2.13162821e-13,42.1880149 Z" id="Fill-13" fill="#47C3CF"></path>
                        <text id="?" font-family="Roboto-Bold, Roboto" font-size="50" font-weight="bold" letter-spacing="1.81557572" fill="#FFFFFF">
                            <tspan x="28.6288332" y="67">?</tspan>
                        </text>
                    </g>
                </g>
            </g>
        </g>
    </g>
</svg>